<svg xmlns="http://www.w3.org/2000/svg" viewBox="0 0 118.4 118.4"><title>drift-icon</title><path d="M61.11,35.89A2.47,2.47,0,0,0,62.3,37.5L72,43.1a1.05,1.05,0,0,1,.5.9v6.8a1,1,0,0,0,1.5.9c3.9-2.3,14.4-8.4,18.3-10.6a1,1,0,0,0,0-1.8l-27.4-16a2.27,2.27,0,0,0-2.5,0,3,3,0,0,0-.58.48A2.5,2.5,0,0,0,61,25.5h0v9.9c0,.12,0,.23.08.35S61.09,35.84,61.11,35.89Z" style="fill:#fff"/><path d="M56.7,23.3a2.48,2.48,0,0,0-2.6,0l-27.5,16a1,1,0,0,0,0,1.7c3.9,2.3,14.5,8.4,18.4,10.7a1.22,1.22,0,0,0,.3.08,1,1,0,0,0,1.3-1V44a.89.89,0,0,1,.5-.8l9.2-5.4a3.4,3.4,0,0,0,1.7-3V25.5A3.16,3.16,0,0,0,56.7,23.3Z" style="fill:#fff"/><path d="M56.3,62.1,24.4,43.5a2.3,2.3,0,0,0-1.4-.35,2.3,2.3,0,0,0-1.4.35,2.51,2.51,0,0,0-1.2,2.2v9.8a2.75,2.75,0,0,0,1.2,2.2l10.2,5.9V89.3a2.61,2.61,0,0,0,1.3,2.2l6.3,3.7a2.77,2.77,0,0,0,1.3.3,3.08,3.08,0,0,0,1.3-.3A2.51,2.51,0,0,0,43.2,93V70.2l10.5,6.1a2.75,2.75,0,0,0,2.5,0,3,3,0,0,0,.75-.79,2.44,2.44,0,0,0,.54-1.41h0V64.2s0-.06,0-.09A2.48,2.48,0,0,0,56.3,62.1Z" style="fill:#fff"/><path d="M96.9,43.4a2.27,2.27,0,0,0-2.5,0l-23,13.39L62.3,62.1A2.61,2.61,0,0,0,61,64.3v9.8a2.61,2.61,0,0,0,1.3,2.2,2.75,2.75,0,0,0,2.5,0l.12-.07.08,0,10.3-6V93a2.61,2.61,0,0,0,1.3,2.2,2.76,2.76,0,0,0,.82.25l.29,0h.19a2.66,2.66,0,0,0,1.2-.3l6.3-3.7a2.51,2.51,0,0,0,1.2-2.2V63.6l10.2-5.9a2.61,2.61,0,0,0,1.3-2.2V45.6A2.51,2.51,0,0,0,96.9,43.4Z" style="fill:#fff"/><path d="M59.2,0a59.2,59.2,0,1,0,59.2,59.2A59.19,59.19,0,0,0,59.2,0ZM86.6,89.3a2.51,2.51,0,0,1-1.2,2.2l-6.3,3.7a2.66,2.66,0,0,1-1.2.3h-.19l-.29,0a2.76,2.76,0,0,1-.82-.25A2.61,2.61,0,0,1,75.3,93V70.22L65,76.2l-.08,0-.12.07a2.75,2.75,0,0,1-2.5,0A2.61,2.61,0,0,1,61,74.1V64.3a2.61,2.61,0,0,1,1.3-2.2l9.13-5.31,23-13.39a2.27,2.27,0,0,1,2.5,0,2.51,2.51,0,0,1,1.2,2.2v9.9a2.61,2.61,0,0,1-1.3,2.2L86.6,63.6Zm6.22-49.1a1,1,0,0,1-.52.9C88.4,43.3,77.9,49.4,74,51.7a1,1,0,0,1-1.5-.9V44a1.05,1.05,0,0,0-.5-.9l-9.7-5.6a2.47,2.47,0,0,1-1.19-1.61s0-.09,0-.14S61,35.52,61,35.4V25.5h0a2.5,2.5,0,0,1,.8-1.72,3,3,0,0,1,.58-.48,2.27,2.27,0,0,1,2.5,0l27.4,16A1,1,0,0,1,92.82,40.2ZM21.6,57.7a2.75,2.75,0,0,1-1.2-2.2V45.7a2.51,2.51,0,0,1,1.2-2.2,2.3,2.3,0,0,1,1.4-.35,2.3,2.3,0,0,1,1.4.35L56.3,62.1a2.48,2.48,0,0,1,1.18,2s0,.06,0,.09v9.9h0a2.44,2.44,0,0,1-.54,1.41,3,3,0,0,1-.75.79,2.75,2.75,0,0,1-2.5,0L43.2,70.2V93A2.51,2.51,0,0,1,42,95.2a3.08,3.08,0,0,1-1.3.3,2.77,2.77,0,0,1-1.3-.3l-6.3-3.7a2.61,2.61,0,0,1-1.3-2.2V63.6ZM58,34.8a3.4,3.4,0,0,1-1.7,3l-9.2,5.4a.89.89,0,0,0-.5.8v6.8a1,1,0,0,1-1.3,1,1.22,1.22,0,0,1-.3-.08C41.1,49.4,30.5,43.3,26.6,41a1,1,0,0,1,0-1.7l27.5-16a2.48,2.48,0,0,1,2.6,0A3.16,3.16,0,0,1,58,25.5Z" style="fill:#0176ff"/></svg>